<svg width="65" height="58" viewBox="0 0 65 58" fill="none" xmlns="http://www.w3.org/2000/svg">
<path d="M37.1546 18.8007L36.008 19.8437C36.7526 20.8404 37.346 22.882 37.0958 23.6281L38.8876 23.5319C40.7935 26.2827 41.4907 33.1421 41.601 36.2279C43.1029 31.5027 42.0698 25.1305 41.2784 22.4913C42.9162 19.6277 40.7722 18.2103 39.4955 17.8595C36.8788 11.9621 32.5794 8.15833 30.7567 6.99365C34.4521 10.9422 36.7933 16.8757 37.1546 18.8007Z" fill="white"/>
<path d="M36.008 19.8437L0.799287 31.921L1.49164 34.2614L37.0958 23.6282C37.6568 21.7181 36.6043 20.3094 36.008 19.8437Z" fill="white"/>
<path d="M30.9371 41.3978C32.6064 41.3978 51.8586 41.3978 53.194 41.3978C54.5295 41.3978 54.5295 44.9589 53.194 44.9589C51.8586 44.9589 32.4951 44.9589 30.9371 44.9589C29.3792 44.9589 29.2679 41.3978 30.9371 41.3978Z" fill="white"/>
<path d="M34.4338 39.1722C35.5725 39.1722 48.7063 39.1722 49.6174 39.1722C50.5284 39.1722 50.5284 41.8431 49.6174 41.8431C48.7063 41.8431 35.4966 41.8431 34.4338 41.8431C33.3709 41.8431 33.295 39.1722 34.4338 39.1722Z" fill="white"/>
<path d="M34.3869 31.0485L37.3916 36.1676L32.4951 32.05L34.3869 31.0485Z" fill="white"/>
<path d="M48.4088 31.1597L45.4041 36.2788L50.3006 32.1612L48.4088 31.1597Z" fill="white"/>
</svg>
